<svg width="24" height="24" viewBox="0 0 24 24" fill="none" xmlns="http://www.w3.org/2000/svg">
<path fill-rule="evenodd" clip-rule="evenodd" d="M11.9717 0.0145264L12.0288 0.0145264C15.0375 0.0215173 17.786 1.13442 19.8886 2.96781C20.0376 3.09772 19.9432 3.33614 19.7454 3.33614L4.25507 3.33614C4.05729 3.33614 3.96294 3.09772 4.11192 2.96781C6.21448 1.13442 8.96305 0.0215169 11.9717 0.0145264Z" fill="white" fill-opacity="0.98"/>
<path fill-rule="evenodd" clip-rule="evenodd" d="M7.33258 15.2632C7.24673 15.1409 7.10849 15.0641 6.95895 15.0641L0.752085 15.0641C0.572275 15.0641 0.441175 15.2344 0.492198 15.4066C1.96175 20.3666 6.558 23.9854 12.0005 23.9854C17.443 23.9854 22.0393 20.3666 23.5088 15.4066C23.5598 15.2344 23.4287 15.0641 23.2489 15.0641L17.0422 15.0641C16.8926 15.0641 16.7544 15.1409 16.6685 15.2632C15.6381 16.7308 13.9315 17.6902 12.0006 17.6902C10.0696 17.6902 8.36303 16.7308 7.33258 15.2632Z" fill="white" fill-opacity="0.98"/>
<path fill-rule="evenodd" clip-rule="evenodd" d="M16.5191 8.53247C16.6288 8.67497 16.7959 8.76433 16.9759 8.76433L23.1966 8.76433C23.3781 8.76433 23.5095 8.59131 23.4553 8.41829C22.9852 6.91622 22.2272 5.54121 21.2457 4.35774C21.164 4.25923 21.042 4.20361 20.9139 4.20361L3.08581 4.20361C2.95774 4.20361 2.83571 4.25923 2.75401 4.35774C1.77254 5.54121 1.01447 6.91622 0.544383 8.41829C0.490235 8.59131 0.621648 8.76433 0.803141 8.76433H7.02386C7.20384 8.76433 7.37093 8.67497 7.48065 8.53247C8.52223 7.1796 10.1591 6.3077 11.9999 6.3077C13.8406 6.3077 15.4775 7.1796 16.5191 8.53247Z" fill="white" fill-opacity="0.98"/>
<path fill-rule="evenodd" clip-rule="evenodd" d="M17.5052 14.1974C17.3878 14.1974 17.3079 14.0778 17.3485 13.9677C17.5743 13.3551 17.6976 12.6929 17.6976 12.002C17.6976 11.2487 17.5511 10.5297 17.2849 9.8717C17.2401 9.76074 17.32 9.63672 17.4398 9.63672L23.5417 9.63672C23.6724 9.63672 23.7852 9.72877 23.8085 9.8572C23.9344 10.5531 24.0001 11.27 24.0001 12.0021C24.0001 12.6734 23.9448 13.3318 23.8386 13.9731C23.8171 14.1033 23.7034 14.1974 23.5712 14.1974L17.5052 14.1974ZM6.65172 13.9677C6.69231 14.0778 6.61246 14.1974 6.49497 14.1974H0.429022C0.296856 14.1974 0.183164 14.1033 0.161591 13.9731C0.0553768 13.3318 0.00012207 12.6734 0.00012207 12.0021C0.00012207 11.27 0.065852 10.5531 0.19174 9.8572C0.214971 9.72877 0.327817 9.63672 0.458484 9.63672L6.56041 9.63672C6.68022 9.63672 6.76016 9.76074 6.71529 9.87169C6.44916 10.5297 6.30265 11.2487 6.30265 12.002C6.30265 12.6929 6.42593 13.355 6.65172 13.9677Z" fill="white" fill-opacity="0.98"/>
</svg>
