<?xml version="1.0" encoding="UTF-8"?>
<svg id="_图层_1" data-name="图层_1" xmlns="http://www.w3.org/2000/svg" version="1.1" viewBox="0 0 1000 400">
  <!-- Generator: Adobe Illustrator 29.1.0, SVG Export Plug-In . SVG Version: 2.1.0 Build 142)  -->
  <defs>
    <style>
      .st0 {
        fill: #fff;
      }
    </style>
  </defs>
  <path class="st0" d="M115.3,108.9h111.2c1.1,0,1.7-1.4.8-2.1-15.4-12.5-35-20-56.4-20s-41,7.5-56.4,20c-.9.7-.4,2.1.8,2.1Z"/>
  <path class="st0" d="M255.4,199.4h-46.9c-1.1,0-2.1.6-2.8,1.5-7.7,11-20.4,18.2-34.9,18.2s-27.2-7.2-34.9-18.2c-.6-.9-1.7-1.5-2.8-1.5h-46.9c-1.1,0-1.9,1-1.6,2.1,10.8,37.4,45.3,64.7,86.1,64.7s75.3-27.3,86.1-64.7c.3-1-.5-2.1-1.6-2.1Z"/>
  <path class="st0" d="M87.8,149h49c1,0,1.9-.4,2.5-1.1,7.8-8.6,19-14,31.5-14s23.7,5.4,31.5,14c.6.7,1.6,1.1,2.5,1.1h49c1.1,0,1.9-1.1,1.5-2.1-3.5-9.9-8.6-19-15.1-27-.6-.7-1.5-1.2-2.5-1.2H103.9c-1,0-1.9.4-2.5,1.2-6.5,8-11.6,17.1-15.1,27-.4,1,.4,2.1,1.5,2.1Z"/>
  <path class="st0" d="M257.8,158.9h-46.2c-.9,0-1.5.9-1.2,1.8,2,4.9,3,10.3,3,15.9s-.5,7.8-1.6,11.5c-.2.8.4,1.6,1.2,1.6h45.4c.6,0,1.1-.4,1.2-1.1.5-3.9.8-8,.8-12.1s-.5-11.2-1.5-16.6c-.1-.6-.6-1-1.2-1Z"/>
  <path class="st0" d="M129.9,188c-1-3.7-1.6-7.5-1.6-11.5s1.1-11,3-15.9c.3-.8-.3-1.8-1.2-1.8h-46.2c-.6,0-1.1.4-1.2,1-1,5.4-1.5,10.9-1.5,16.6s.3,8.1.8,12.1c0,.6.6,1.1,1.2,1.1h45.4c.8,0,1.4-.8,1.2-1.6Z"/>
  <path class="st0" d="M339.3,141c-6.6,1.6-12.6,4.6-17.9,9.2-2.7,2.3-5.2,4.9-7.3,7.8v-15.8h-31.8v121.5h31.8v-68.1c0-6.9,2-12.7,5.9-17.4,4.1-4.7,9.6-7.7,16.5-9,7.1-1.3,14.8-.5,23.1,2.4v-29.9c-6.9-2-13.7-2.3-20.3-.7Z"/>
  <path class="st0" d="M457.6,156.6c-2.9-3.2-6.2-6.1-9.9-8.5-8.3-5.5-17.9-8.2-28.7-8.2s-20.7,2.7-29.7,8.2c-9,5.5-16,13.1-21.2,22.8-5,9.7-7.5,20.4-7.5,32s2.5,22.5,7.5,32.3c5.2,9.6,12.2,17.1,21.2,22.6,8.9,5.5,18.8,8.2,29.7,8.2s20.4-2.7,28.7-8.2c3.7-2.4,7-5.3,9.9-8.5v14.4h31.8V89.5h-31.8v67.2ZM453.4,220.4c-2.8,5.2-6.7,9.3-11.5,12.2s-10.3,4.5-16.2,4.5-11.4-1.5-16.2-4.5-8.7-7.1-11.5-12.2c-2.8-5.3-4.2-11.1-4.2-17.4s1.4-12,4.2-17.2c2.8-5.3,6.7-9.4,11.5-12.2,4.9-3,10.3-4.5,16.2-4.5s11.4,1.5,16.2,4.5c4.9,2.8,8.7,6.9,11.5,12.2,2.8,5.2,4.2,10.9,4.2,17.2s-1.4,12.1-4.2,17.4Z"/>
  <path class="st0" d="M607.4,150c-10.4-6.8-22.2-10.1-35.6-10.1s-22.8,2.8-32.5,8.5c-9.7,5.5-17.4,13.1-23.1,22.8-5.5,9.6-8.2,20.2-8.2,31.8s2.8,22.5,8.5,32.3c5.8,9.6,13.7,17.1,23.6,22.6,9.9,5.5,20.9,8.2,33,8.2s24-2.9,33.9-8.7c9.9-6,17.7-13.9,23.3-23.8l-26.1-11.8c-3,5.3-7.1,9.6-12.5,12.7-5.2,3-11.1,4.5-17.7,4.5s-12.8-1.6-18.1-4.7c-5.3-3.1-9.5-7.5-12.5-13-1.2-2.2-2.1-4.6-2.7-7.1h93.9c2.2-13.3.8-25.7-4.2-37-4.9-11.5-12.5-20.6-22.8-27.3ZM555.1,171.9c5-3.1,10.6-4.7,16.7-4.7s11.5,1.4,16.2,4.2c4.9,2.8,8.7,6.8,11.5,11.8,1.2,2.2,2.2,4.4,2.9,6.8h-61.4c.6-1.8,1.3-3.5,2.2-5.2,2.8-5.7,6.8-10,11.8-13Z"/>
  <path class="st0" d="M711.1,141c-6.6,1.6-12.6,4.6-17.9,9.2-2.7,2.3-5.2,4.9-7.3,7.8v-15.8h-31.8v121.5h31.8v-68.1c0-6.9,2-12.7,5.9-17.4,4.1-4.7,9.6-7.7,16.5-9,7.1-1.3,14.8-.5,23.1,2.4v-29.9c-6.9-2-13.7-2.3-20.3-.7Z"/>
  <rect class="st0" x="746.2" y="89.5" width="31.8" height="174.3"/>
  <path class="st0" d="M886.9,142.2v64.3c0,5.2-1.2,9.9-3.5,14.1-2.4,4.1-5.8,7.3-10.4,9.7-4.4,2.2-9.4,3.3-15.1,3.3s-10.4-1.1-14.4-3.3c-3.8-2.4-6.7-5.5-8.7-9.4-2-4.1-3.1-8.9-3.1-14.4v-64.3h-31.8v69.9c0,9.9,2,18.6,5.9,26.1,3.9,7.5,9.5,13.4,16.7,17.7,7.4,4.2,16.1,6.4,26.1,6.4s18.4-2.3,25.9-6.8c4.8-3,8.9-6.7,12.2-11.1v6.6c0,9.7-3.1,17.7-9.2,23.8-6,6.3-13.4,9.4-22.4,9.4s-11.2-1.6-15.8-4.9c-4.6-3.1-8.2-7.8-11.1-13.9l-28.3,15.1c5.3,9.9,12.8,17.8,22.4,23.8,9.6,6,20.5,9,32.7,9s22.5-2.7,32-8c9.7-5.3,17.3-12.8,22.8-22.4,5.7-9.4,8.5-20,8.5-31.8v-108.8h-31.8Z"/>
</svg>