<svg width="24" height="24" viewBox="0 0 24 24" fill="none" xmlns="http://www.w3.org/2000/svg">
<rect width="24" height="24" rx="12" fill="#07080A"/>
<path d="M5.07715 7.38477H7.34582L8.95035 12.6657C9.05593 13.0134 9.14552 13.3951 9.14552 13.3951C9.14552 13.3951 9.28425 12.9818 9.42666 12.6535L10.3106 10.6015C10.449 10.2822 10.6788 10.0102 10.9718 9.81912C11.2648 9.62794 11.6078 9.52605 11.9587 9.52605C12.3095 9.52605 12.6526 9.62794 12.9455 9.81912C13.2385 10.0102 13.4684 10.2822 13.6067 10.6015L15.7502 15.5116V16.6058H14.3483C14.1134 16.6059 13.8837 16.5365 13.6888 16.4066C13.494 16.2766 13.3427 16.092 13.2545 15.8764L11.9507 12.7156L10.7083 15.8679C10.6217 16.0882 10.4699 16.2775 10.2727 16.411C10.0755 16.5444 9.84223 16.6157 9.60343 16.6155H8.75515C8.51953 16.6151 8.29024 16.54 8.10074 16.4014C7.91125 16.2627 7.77146 16.0677 7.70182 15.8448L5.07715 7.38477Z" fill="#FEFEFE"/>
<path d="M18.1459 10.8463L19.2115 7.38477H16.8156L15.75 10.8463H18.1459Z" fill="url(#paint0_linear_1516_192036)"/>
<path d="M15.371 12L14.1633 15.8653C14.1633 15.8653 14.1633 15.8653 14.1633 15.8737C14.09 16.0899 13.9687 16.4028 13.6491 16.3834C13.5757 16.3876 13.503 16.3672 13.4424 16.3255C13.6533 16.5121 13.9245 16.6152 14.2054 16.6154H15.6329C15.8441 16.597 16.0451 16.5159 16.2103 16.3823C16.3755 16.2487 16.4974 16.0687 16.5605 15.8653L17.7693 12H15.371Z" fill="url(#paint1_linear_1516_192036)"/>
<defs>
<linearGradient id="paint0_linear_1516_192036" x1="14.6185" y1="16.5924" x2="17.597" y2="7.45496" gradientUnits="userSpaceOnUse">
<stop stop-color="#59B0FE"/>
<stop offset="1" stop-color="#26FEFE"/>
</linearGradient>
<linearGradient id="paint1_linear_1516_192036" x1="16.1917" y1="16.5872" x2="18.2062" y2="7.45801" gradientUnits="userSpaceOnUse">
<stop stop-color="#59B0FE"/>
<stop offset="1" stop-color="#26FEFE"/>
</linearGradient>
</defs>
</svg>
