<svg width="25" height="16" viewBox="0 0 25 16" fill="none" xmlns="http://www.w3.org/2000/svg">
<path d="M0 0H3.93236L6.71355 9.15367C6.89655 9.75635 7.05185 10.4179 7.05185 10.4179C7.05185 10.4179 7.29231 9.70147 7.53915 9.13253L9.07124 5.57568C9.31115 5.02228 9.70955 4.5508 10.2174 4.21954C10.7252 3.88817 11.3198 3.71156 11.928 3.71156C12.5361 3.71156 13.1307 3.88817 13.6385 4.21954C14.1464 4.5508 14.5448 5.02228 14.7846 5.57568L18.5 14.0866V15.983H16.07C15.6628 15.9832 15.2647 15.863 14.9269 15.6378C14.5892 15.4125 14.3269 15.0925 14.174 14.7188L11.9141 9.2401L9.76073 14.704C9.6105 15.0859 9.34741 15.4141 9.00562 15.6454C8.66387 15.8767 8.25948 16.0003 7.84556 16H6.3752C5.96679 15.9992 5.56935 15.8691 5.2409 15.6288C4.91244 15.3884 4.67014 15.0503 4.54943 14.664L0 0Z" fill="#FEFEFE"/>
<path d="M22.6529 5.99999L24.5 0H20.3471L18.5 5.99999H22.6529Z" fill="url(#paint0_linear_2405_16122)"/>
<path d="M17.8429 8L15.7496 14.6998C15.7496 14.6998 15.7496 14.6998 15.7496 14.7145C15.6225 15.0892 15.4122 15.6315 14.8583 15.5979C14.7311 15.6052 14.6051 15.5698 14.5 15.4976C14.8655 15.821 15.3357 15.9997 15.8226 16H18.2969C18.6629 15.9682 19.0114 15.8275 19.2978 15.5959C19.584 15.3644 19.7953 15.0524 19.9047 14.6998L22 8H17.8429Z" fill="url(#paint1_linear_2405_16122)"/>
<defs>
<linearGradient id="paint0_linear_2405_16122" x1="16.5387" y1="15.9598" x2="21.7015" y2="0.12167" gradientUnits="userSpaceOnUse">
<stop stop-color="#59B0FE"/>
<stop offset="1" stop-color="#26FEFE"/>
</linearGradient>
<linearGradient id="paint1_linear_2405_16122" x1="19.2655" y1="15.9512" x2="22.7573" y2="0.127224" gradientUnits="userSpaceOnUse">
<stop stop-color="#59B0FE"/>
<stop offset="1" stop-color="#26FEFE"/>
</linearGradient>
</defs>
</svg>
